<svg width="591" height="296" viewBox="0 0 591 296" fill="none" xmlns="http://www.w3.org/2000/svg">
<path d="M13.6 154.2H5.39999V5.29999H38.3V154.2H13.6Z" fill="#FF00FF"/>
<path d="M69.3 35.9C56.6 35.9 47.5 33 47.5 18.3C47.5 3.3 56.6 0.700012 69.3 0.700012C81.7 0.700012 90.8 3.3 90.8 18.3C90.8 33 81.7 35.9 69.3 35.9ZM60.8 154.2H52.7V46.7H85.6V154.5H60.8V154.2Z" fill="#FF00FF"/>
<path d="M137.7 73.1V154.2H104.8V73.1H88.2L88.5 55.5L104.8 46.7V37.6C104.8 9.3 123.4 1.79999 162.1 4.99999V31.7C142.2 29.7 137.7 33.7 137.7 41.1V46.3H162.1V73.3H137.7V73.1Z" fill="#FF00FF"/>
<path d="M216.2 155.5C171.2 155.5 160.2 128.5 160.2 100.1C160.2 72.1 171.9 44.7 215.9 44.7C262.2 44.7 268.7 79.9 266.7 110.5H226.3H193.1C193.4 124.8 200.3 132.3 214.6 132.3C226.7 132.3 231.9 127.4 233.2 121.2H267.4C265.4 141.2 249.1 155.5 216.2 155.5ZM213.6 68.5C200.6 68.5 194.4 77 193.4 88.4H232.8C232.9 77.3 227.6 68.5 213.6 68.5Z" fill="#FF00FF"/>
<path d="M55.9 295.6C11.9 295.6 0.5 268.2 0.5 239.9C0.5 211.6 12.2 184.2 55.2 184.2C89.7 184.2 106 202.4 106 230.8H73.2C71.9 216.8 67 211.3 54.6 211.3C37.7 211.3 33.4 221.7 33.4 239.6C33.4 257.5 37.6 267.9 54.6 267.9C67.3 267.9 71.9 262 73.2 249.3H106.1C106.1 278 90.5 295.6 55.9 295.6Z" fill="#FF00FF"/>
<path d="M167.4 295.3C122.4 295.3 111.4 268.3 111.4 239.9C111.4 211.9 123.1 184.5 167.1 184.5C213.4 184.5 219.9 219.7 217.6 250.3H177.5H144.3C144.6 264.6 151.5 272.1 165.8 272.1C177.9 272.1 183.1 267.2 184.4 261H218.6C216.2 280.9 199.9 295.3 167.4 295.3ZM164.8 208.3C151.8 208.3 145.6 216.8 144.6 228.2H184C184 216.7 178.8 208.3 164.8 208.3Z" fill="#FF00FF"/>
<path d="M305.5 294H298.7V233.4C298.7 219.1 295.8 212.2 280.8 212.2C265.8 212.2 261.9 218.7 261.9 233.4V294H228.7V186.4H243.7L251.2 201.1C255.8 192 268.8 184.8 289 184.8C324.5 184.8 331 205.7 331 234.7V294H305.5Z" fill="#FF00FF"/>
<path d="M350.1 259.4V212.8H333.2V195.2L350.1 186.4V159.4H382.7V186.4H410.1V213.1H383.4V256.4C383.4 264.5 385.4 271.4 410.1 268.8V295.5C361.9 298.2 350.1 288.4 350.1 259.4Z" fill="#FF00FF"/>
<path d="M467.4 295.3C422.4 295.3 411.4 268.3 411.4 239.9C411.4 211.9 423.1 184.5 467.1 184.5C513.4 184.5 519.9 219.7 517.6 250.3H477.2H444C444.3 264.6 451.2 272.1 465.5 272.1C477.6 272.1 482.8 267.2 484.1 261H518.3C516.3 280.9 500 295.3 467.4 295.3ZM464.8 208.3C451.8 208.3 445.6 216.8 444.6 228.2H484C484.1 216.7 478.8 208.3 464.8 208.3Z" fill="#FF00FF"/>
<path d="M561.6 238.9V294H528.7V186.4H543.7L551.2 203.3C556.1 195.8 567.5 183.1 590.3 185.7V214.4C565.5 211.5 561.6 224.9 561.6 238.9Z" fill="#FF00FF"/>
</svg>
